<svg width="369.84999999999997" height="60.54854597634066" viewBox="0 0 369.66666666666663 60.51853227683457" class="looka-1j8o68f"><defs id="SvgjsDefs4048"></defs><g id="SvgjsG4049" featurekey="5TMTKC-0" transform="matrix(0.12549927401304978,0,0,0.12549927401304978,-6.348858924047784,-41.785370351084524)" fill="#a78bfa"><g xmlns="http://www.w3.org/2000/svg"><path d="M241,495.7c32.8,8.6,62.2,13.3,89.2,24c41.8,16.5,80.6,5.5,120.5-5.2c79.6-21.3,159.5-41.6,239.2-62.4   c2.4-0.6,4.6-1.8,7-2.3c8.8-1.9,17.9-4.1,17.7-15.2c-0.2-11.2-10.1-13.1-18.4-14.9c-42.7-9.1-85.6-17.8-128.4-26.5   C510.6,381.7,453.1,371,396,358.4c-24-5.3-45,4.4-66.9,8.9c-86.8,17.7-173.4,36.6-260.1,54.9c-8.8,1.9-18,2.9-18.4,14.2   c-0.4,12.5,10,13.8,19,16.1c19.1,4.9,37.9,11.1,57.2,14.3c14.5,2.4,17.8,9.3,16.8,22.4c-1.2,15.7,2.6,32-9.1,45.8   c-2.3,2.8-3.5,9.4-1.8,12.2c13.2,22.2,2.4,44.7,0.8,66.7c-4,55.4-0.1,109.8,16.2,163c6.8,22.2,18.1,29.3,41.5,28.4   c20.4-0.8,38.1-9.5,54.9-20.1c12.9-8.2,7.3-18.6,0.3-26.7c-36.7-42.6-52.2-94.4-64.7-147.5c-3.1-13.2-10.7-29.3-6.1-39.4   c10.3-22.7,2.4-40.7-4-61.1c-5.7-18.2,2.9-27.6,22.8-32c54.6-12,108.7-26.5,163-40c2.4-0.6,4.9-0.6,7.3-1.2   c8.5-2.1,16.8-2,19.7,7.9c3.1,10.9-4.3,15.9-13.6,18.2c-30.4,7.6-60.9,15-91.3,22.6C268.2,488.7,257,491.6,241,495.7z"></path><path d="M225,577.3c0,79.4,38.7,122,126.1,138.8c56.4,10.8,106.2-5.6,150.9-38.7c25.8-19.1,37.6-46.7,38.4-78.7   c0.4-16.1-0.6-32.2,0.3-48.2c0.7-13.6-1-18.5-17-13.8c-41.3,12-83.3,21.4-124.9,32.4c-11.1,2.9-21.7,3.1-32.8,0.3   c-42.9-10.9-85.9-21.1-128.6-32.7c-10.3-2.8-13.3-1.3-12.6,9.2C225.4,556.2,225,566.8,225,577.3z"></path></g></g><g id="SvgjsG4050" featurekey="7UBp9i-0" transform="matrix(2.750842376219753,0,0,2.750842376219753,100.79932819775037,-12.048689922651446)" fill="#a78bfa"><path d="M2.6 18.24 c1.16 1.1 2.54 1.72 4.2 1.72 c3.08 0 5.62 -2.2 5.98 -5.04 l0.02 -0.22 l-3.26 0 l-0.04 0.16 c-0.28 1.22 -1.36 2.04 -2.7 2.04 c-1.6 0 -2.76 -1.26 -2.76 -2.76 c0 -1.48 1.16 -2.74 2.76 -2.74 c1.2 0 2.18 0.64 2.6 1.68 l0.04 0.12 l3.32 0 l-0.04 -0.22 c-0.5 -2.66 -3.06 -4.64 -5.92 -4.64 c-3.34 0 -6 2.72 -6 5.8 c0 1.6 0.6 2.98 1.8 4.1 z  M14.4 20.02 l3.24 0 l-0.04 -15.64 l-3.18 0 l0 0.2 z M19.24 14.16 c0 3.14 2.66 5.84 6.04 5.84 c1.02 0 1.98 -0.22 2.86 -0.66 l0 0.66 l3.18 0 l-0.02 -11.56 l-3.24 0 l0 0.52 c-0.86 -0.42 -1.8 -0.62 -2.78 -0.62 c-3.38 0 -6.04 2.7 -6.04 5.82 z M27.279999999999998 16.14 c-0.54 0.52 -1.2 0.82 -2 0.82 c-1.58 0 -2.8 -1.32 -2.8 -2.8 c0 -1.46 1.22 -2.78 2.8 -2.78 c0.8 0 1.46 0.28 2 0.8 c0.34 0.34 0.78 1.06 0.78 1.48 l0 1.02 c0 0.42 -0.44 1.1 -0.78 1.46 z M32.94 16.48 c0 2.8 3.54 3.52 5.7 3.52 c2.14 0 5.34 -0.7 5.34 -3.4 c0 -0.82 -0.24 -1.22 -0.72 -1.82 c-0.4 -0.52 -1 -0.9 -1.56 -1.18 c-0.42 -0.22 -0.88 -0.4 -1.34 -0.54 c-0.46 -0.16 -0.92 -0.28 -1.36 -0.44 c-0.24 -0.08 -0.54 -0.16 -0.86 -0.28 c-0.3 -0.1 -0.6 -0.2 -0.78 -0.3 c-0.1 -0.06 -0.2 -0.12 -0.28 -0.18 s-0.1 -0.12 -0.1 -0.18 c0 -0.16 0.16 -0.3 0.48 -0.42 c0.32 -0.1 0.68 -0.14 0.9 -0.14 c0.34 0 0.8 0.08 1.18 0.24 c0.38 0.18 0.62 0.42 0.62 0.74 l0 0.52 l3.64 -0.02 l0 -0.56 c0 -1.18 -0.64 -2.04 -1.6 -2.68 c-1.18 -0.76 -2.52 -1 -3.9 -1 c-2.16 0 -5.26 0.9 -5.26 3.54 c0 0.46 0.12 0.9 0.36 1.3 c0.2 0.32 0.46 0.68 0.78 0.94 c0.66 0.52 1.66 0.94 2.46 1.2 c0.42 0.14 0.88 0.24 1.3 0.4 c0.24 0.08 0.56 0.16 0.88 0.26 c0.32 0.12 0.6 0.22 0.82 0.32 c0.22 0.12 0.36 0.26 0.36 0.42 c0 0.18 -0.14 0.3 -0.5 0.4 c-0.32 0.08 -0.7 0.08 -0.92 0.08 c-0.5 0 -1.14 -0.06 -1.52 -0.28 c-0.12 -0.06 -0.24 -0.16 -0.34 -0.26 s-0.16 -0.18 -0.16 -0.26 l-0.02 -0.7 l-3.62 0 l0 0.08 c0.02 0.22 0.02 0.44 0.02 0.68 z M45.6 16.48 c0 2.8 3.54 3.52 5.7 3.52 c2.14 0 5.34 -0.7 5.34 -3.4 c0 -0.82 -0.24 -1.22 -0.72 -1.82 c-0.4 -0.52 -1 -0.9 -1.56 -1.18 c-0.42 -0.22 -0.88 -0.4 -1.34 -0.54 c-0.46 -0.16 -0.92 -0.28 -1.36 -0.44 c-0.24 -0.08 -0.54 -0.16 -0.86 -0.28 c-0.3 -0.1 -0.6 -0.2 -0.78 -0.3 c-0.1 -0.06 -0.2 -0.12 -0.28 -0.18 s-0.1 -0.12 -0.1 -0.18 c0 -0.16 0.16 -0.3 0.48 -0.42 c0.32 -0.1 0.68 -0.14 0.9 -0.14 c0.34 0 0.8 0.08 1.18 0.24 c0.38 0.18 0.62 0.42 0.62 0.74 l0 0.52 l3.64 -0.02 l0 -0.56 c0 -1.18 -0.64 -2.04 -1.6 -2.68 c-1.18 -0.76 -2.52 -1 -3.9 -1 c-2.16 0 -5.26 0.9 -5.26 3.54 c0 0.46 0.12 0.9 0.36 1.3 c0.2 0.32 0.46 0.68 0.78 0.94 c0.66 0.52 1.66 0.94 2.46 1.2 c0.42 0.14 0.88 0.24 1.3 0.4 c0.24 0.08 0.56 0.16 0.88 0.26 c0.32 0.12 0.6 0.22 0.82 0.32 c0.22 0.12 0.36 0.26 0.36 0.42 c0 0.18 -0.14 0.3 -0.5 0.4 c-0.32 0.08 -0.7 0.08 -0.92 0.08 c-0.5 0 -1.14 -0.06 -1.52 -0.28 c-0.12 -0.06 -0.24 -0.16 -0.34 -0.26 s-0.16 -0.18 -0.16 -0.26 l-0.02 -0.7 l-3.62 0 l0 0.08 c0.02 0.22 0.02 0.44 0.02 0.68 z M64.28 8.24 c3.4 0 6.06 2.7 6.06 5.84 c0 3.12 -2.66 5.82 -6.06 5.82 c-1 0 -1.96 -0.22 -2.84 -0.66 l0 4.36 l-3.18 0 l0 -15.2 l3.24 0 l0 0.46 c0.86 -0.42 1.8 -0.62 2.78 -0.62 z M64.28 16.86 c1.6 0 2.82 -1.32 2.82 -2.78 c0 -1.48 -1.22 -2.8 -2.82 -2.8 c-0.78 0 -1.44 0.28 -1.98 0.8 c-0.4 0.4 -0.8 1.12 -0.8 1.64 l0 0.7 c0 0.52 0.4 1.22 0.8 1.62 c0.54 0.52 1.2 0.82 1.98 0.82 z M71.96 4.58 c0 5 -0.02 10.24 -0.02 15.24 l0 0.18 l3.24 0 l0 -5.92 c0 -1.44 1.26 -2.7 2.8 -2.7 c1.48 0 2.64 1.14 2.8 2.5 c0.02 0.2 0 0.42 0 0.62 l0.02 1.46 l0 4 l3.24 0.04 l0 -6.02 c0 -1.46 -0.74 -2.9 -1.8 -3.92 c-1.16 -1.12 -2.58 -1.72 -4.26 -1.72 c-1 0 -1.96 0.22 -2.84 0.66 l0 -4.6 l-3.18 0 l0 0.18 z M85.64 20.56 c0 3.12 2.66 5.82 6.04 5.82 c3.46 0 6.06 -2.64 6.06 -5.82 l0 -12.16 l-3.24 0 l0 5.82 c0 1.46 -1.26 2.72 -2.82 2.72 c-1.54 0 -2.5 -1.12 -2.78 -2.52 l-0.02 -6.02 l-3.24 0 l0 5.94 c0 3.04 2.84 5.64 6.04 5.64 c1.02 0 1.98 -0.22 2.84 -0.66 l-0.02 1.24 c-0.04 1.54 -1.14 2.78 -2.82 2.78 c-1.58 0 -2.8 -1.32 -2.8 -2.78 l0 -0.18 l-3.24 0 l0 0.18 z"></path></g></svg>